HIERARCHY
ROOT Hips
{
	OFFSET 0.000000 0.000000 0.000000 
	CHANNELS 6 Xposition Yposition Zposition Yrotation Zrotation Xrotation 
	JOINT Lumbar
	{
		OFFSET 0.000000 0.000000 0.000000 
		CHANNELS 3 Zrotation Xrotation Yrotation
		JOINT Neck
		{
			OFFSET 0.000000 0.445665 0.000000 
			CHANNELS 3 Zrotation Xrotation Yrotation
			End Site
			{
				OFFSET 0.000000 0.227535 0.000000 
			}
		}
		JOINT RightShoulder
		{
			OFFSET 0.019635 0.377685 0.194865 
			CHANNELS 3 Zrotation Xrotation Yrotation
			JOINT RightElbow
			{
				OFFSET 0.000000 -0.243375 0.000000 
				CHANNELS 2 Zrotation Yrotation
				JOINT RightWrist
				{
					OFFSET 0.000000 -0.264825 0.000000 
					CHANNELS 2 Zrotation Xrotation
					End Site
					{
						OFFSET 0.006600 -0.176220 0.000990 
					}
				}
			}
		}
		JOINT LeftShoulder
		{
			OFFSET 0.019635 0.377685 -0.194865 
			CHANNELS 3 Zrotation Xrotation Yrotation
			JOINT LeftElbow
			{
				OFFSET 0.000000 -0.243375 0.000000 
				CHANNELS 2 Zrotation Yrotation
				JOINT LeftWrist
				{
					OFFSET 0.000000 -0.264825 0.000000 
					CHANNELS 2 Zrotation Xrotation
					End Site
					{
						OFFSET 0.006600 -0.176220 -0.000990 
					}
				}
			}
		}
	}
	JOINT RightHip
	{
		OFFSET 0.052140 -0.069960 0.075570 
		CHANNELS 3 Zrotation Xrotation Yrotation
		JOINT RightKnee
		{
			OFFSET 0.000000 -0.402270 0.000000 
			CHANNELS 1 Zrotation
			JOINT RightAnkle
			{
				OFFSET 0.000000 -0.404085 0.000000 
				CHANNELS 3 Zrotation Xrotation Yrotation
				End Site
				{
					OFFSET 0.204105 -0.089430 0.008415 
				}
			}
		}
	}
	JOINT LeftHip
	{
		OFFSET 0.052140 -0.069960 -0.075570 
		CHANNELS 3 Zrotation Xrotation Yrotation
		JOINT LeftKnee
		{
			OFFSET 0.000000 -0.402270 0.000000 
			CHANNELS 1 Zrotation
			JOINT LeftAnkle
			{
				OFFSET 0.000000 -0.404085 0.000000 
				CHANNELS 3 Zrotation Xrotation Yrotation
				End Site
				{
					OFFSET 0.204105 -0.089430 -0.008415 
				}
			}
		}
	}
}
MOTION
Frames: 30
Frame Time: 0.02
3.65762 0.01557 1.0677 759.54127 -23.53009 -7.39054 37.2091 6.10746 6.27486 -9.81617 12.40675 -0.83079 67.75214 -12.05727 57.07412 107.52956 76.46112 -14.03534 -2.21309 -40.87598 99.75355 82.46486 29.40637 -92.13813 5.72294 -3.30338 6.18994 13.91917 47.23358 5.31588 4.51807 -40.19569 -21.42103 -0.00254 17.49161 -42.85149 0.49081 -20.72177 39.50671 21.3169
3.669 0.01557 1.06164 761.67117 -23.88059 -7.74215 37.18087 5.85453 5.69167 -9.67118 13.67174 -0.83079 67.18712 -12.22154 55.93603 107.72719 76.74651 -14.30525 -2.4412 -42.29453 102.04518 83.31176 28.44776 -91.17754 5.18348 -3.1169 9.99249 13.92438 48.40021 5.3337 5.8577 -40.22632 -21.43248 0.11049 18.78161 -44.03146 0.48567 -19.8728 37.89656 20.87528
3.68058 0.01497 1.05482 763.7366 -24.19118 -7.9294 37.1358 5.58052 5.40646 -9.51601 14.87314 -0.83079 66.18577 -12.28807 54.75406 108.07846 77.2019 -14.53775 -2.68039 -40.81357 103.96059 81.38901 27.59461 -89.78672 4.54895 -2.65435 13.73303 13.92275 47.70588 5.32806 6.19671 -40.21465 -21.42668 0.15769 19.90021 -44.8909 0.47921 -18.56779 35.82073 20.29699
3.69209 0.01457 1.04824 765.82094 -24.51199 -8.18298 37.09732 5.32018 5.00129 -9.36002 16.0919 -0.83079 65.35847 -12.39341 53.62202 108.37153 77.57082 -14.78066 -2.91239 -40.83968 105.99362 80.90788 26.7494 -88.60267 3.94974 -2.33647 17.4454 13.92255 47.90752 5.32743 7.00164 -40.21522 -21.4272 0.21894 21.08695 -45.87449 0.47305 -17.48595 33.97429 19.77353
3.70348 0.01446 1.04212 767.95484 -24.87165 -8.47219 37.06456 5.0381 4.53441 -9.22423 17.36674 -0.83079 64.64395 -12.52248 52.35517 108.61026 77.97363 -15.05825 -3.15813 -40.27089 108.29571 79.84971 25.64929 -87.3604 3.3665 -1.94684 21.43297 13.92315 47.94574 5.32944 7.78131 -40.22973 -21.43626 0.35645 22.31954 -46.94793 0.4672 -16.3279 32.0471 19.27766
3.71519 0.01361 1.03483 769.96592 -25.13965 -8.64859 37.01726 4.79802 4.26427 -9.04651 18.50602 -0.83079 63.59085 -12.5796 51.36282 108.99832 78.34784 -15.24996 -3.37468 -40.09541 109.91614 79.19098 25.11987 -86.14915 2.74103 -1.63528 24.8124 13.92276 47.86227 5.32811 8.3657 -40.19391 -21.40984 0.31623 23.41417 -47.75852 0.46052 -15.22874 30.18082 18.69394
3.72759 0.01084 1.02466 771.67978 -25.15412 -8.54698 36.91156 4.67873 4.47847 -8.73708 19.29568 -0.83079 61.66351 -12.45446 51.12681 109.79036 78.60515 -15.24088 -3.52611 -42.71515 109.93978 81.20001 26.04232 -85.02993 1.93409 -1.63511 26.59949 13.92289 47.91428 5.32855 8.6776 -40.24697 -21.45114 -0.20143 24.16904 -47.92065 0.45334 -14.34247 28.58173 17.88946
3.74032 0.00735 1.01331 773.26734 -25.07877 -8.33887 36.79584 4.60301 4.87678 -8.38929 19.94798 -0.83079 59.41926 -12.26247 51.1714 110.72285 78.82786 -15.14175 -3.64442 -45.64968 109.25644 83.54438 27.55019 -83.97367 1.10414 -1.71743 27.759 13.9229 47.89811 5.32858 8.82061 -40.21886 -21.4316 -0.89563 24.79052 -47.82954 0.44423 -13.54332 27.06243 17.00315
3.75301 0.00421 1.00242 774.89456 -25.05023 -8.18348 36.69848 4.50834 5.18217 -8.07147 20.65692 -0.83079 57.34528 -12.10474 51.09731 111.57333 79.0648 -15.06433 -3.76497 -47.74037 108.75851 85.11183 28.86239 -82.95602 0.34589 -1.7417 29.15434 13.92285 47.89605 5.32844 9.02371 -40.08579 -21.33245 -1.50973 25.47279 -47.85532 0.43659 -12.74467 25.51837 16.16307
3.76527 0.00094 0.99185 776.59269 -24.99489 -8.00313 36.54097 4.40972 5.53981 -7.70088 21.39028 -0.83079 55.13614 -11.92355 50.98629 112.50675 79.31398 -15.0635 -3.93817 -52.60074 108.79709 89.13996 29.90185 -81.64702 -0.66787 -1.84066 30.75631 13.92288 47.90199 5.32854 9.26252 -40.53476 -21.67447 -2.12916 26.14818 -47.8627 0.43072 -11.75992 23.91365 15.28261
3.77848 -0.00221 0.98032 778.11621 -24.97484 -7.85288 36.50824 4.32938 5.82498 -7.43058 22.03833 -0.83079 53.15067 -11.78124 51.01681 113.29761 79.52715 -14.88636 -3.99604 -51.91705 107.58586 88.2603 31.62085 -80.95602 -1.16184 -1.81048 31.77983 13.92287 47.89811 5.3285 9.39992 -39.77126 -21.09703 -2.77388 26.80876 -47.85193 0.41526 -11.19053 22.45498 14.46531
3.79421 -0.00506 0.96653 779.16935 -25.07113 -7.80172 36.80744 4.29417 5.8936 -7.45196 22.50653 -0.83079 51.76066 -11.72341 51.39259 113.66993 79.64938 -14.20965 -3.72305 -34.86266 102.82814 72.85224 35.29674 -82.04159 -0.1429 -1.37771 31.3553 13.92287 47.89939 5.3285 9.30114 -35.51816 -17.87923 -3.48313 27.45788 -47.85884 0.41742 -11.7401 21.4291 13.87094
3.81086 -0.00773 0.95178 780.05526 -25.2066 -7.78721 37.23472 4.27497 5.87642 -7.57438 22.88953 -0.83079 50.62718 -11.71468 51.89701 113.89134 79.73567 -13.36588 -3.33884 -12.39984 96.88595 52.65807 39.59294 -83.7347 1.3872 -0.8191 30.37128 13.92288 47.89949 5.32851 9.11039 -30.0754 -13.76048 -4.20254 28.09735 -47.85671 0.39968 -12.70807 20.54117 13.33798
3.82706 -0.01037 0.93739 781.03023 -25.32656 -7.76338 37.61429 4.24508 5.87779 -7.64741 23.2977 -0.83079 49.44415 -11.7099 52.32771 114.17493 79.83762 -12.62077 -3.01898 6.90632 91.66765 35.27548 43.45935 -85.09382 2.63637 -0.33538 29.64646 13.92287 47.89906 5.3285 8.96539 -25.28695 -10.13009 -4.89448 28.74524 -47.85653 0.36518 -13.49137 19.55963 12.75937
3.8434 -0.01352 0.92328 781.9445 -25.43442 -7.70487 37.95223 4.23113 5.97066 -7.73483 23.75933 -0.83079 47.96794 -11.59247 52.83281 114.4908 79.94155 -11.77398 -2.63992 29.08691 85.65324 15.28128 47.97514 -86.69288 4.08919 0.22362 28.87897 13.92287 47.89935 5.32851 8.79816 -20.02693 -6.16266 -5.6966 29.37465 -47.85652 0.44844 -14.25494 18.70897 12.25418
3.85966 -0.01556 0.90839 782.94852 -25.57704 -7.72858 38.40361 4.18717 5.85192 -7.81543 24.0898 -0.83079 47.16606 -11.72143 53.20955 114.70144 80.03296 -11.10363 -2.35787 46.65197 81.00949 -0.49628 51.27236 -87.94371 5.24051 0.65265 28.07556 13.92287 47.89924 5.32851 8.65649 -15.45367 -2.68623 -6.25993 30.03784 -47.85722 0.27055 -15.15707 17.62014 11.60987
3.87556 -0.01449 0.89145 784.23036 -25.81336 -7.97169 39.16859 4.05706 5.15385 -7.86454 24.09077 -0.83079 48.17615 -12.52501 53.20214 114.66062 80.10071 -10.93461 -2.37346 49.40497 80.5799 -2.72704 51.10158 -88.01399 5.42616 0.72851 27.31259 13.92287 47.89923 5.3285 8.62157 -13.19481 -0.76765 -6.24067 30.83347 -47.8647 -0.52671 -16.3439 15.81745 10.58374
3.89133 -0.01232 0.87378 785.61098 -26.08175 -8.29617 40.03659 3.89612 4.24842 -7.90144 23.96073 -0.83079 49.85357 -13.57323 53.0598 114.51836 80.15682 -10.95407 -2.48997 47.44952 81.54954 -0.67166 49.67403 -87.7245 5.29238 0.66387 26.53481 13.92287 47.89925 5.3285 8.61462 -11.64921 0.62236 -5.96518 31.65729 -47.87384 -1.60298 -17.65234 13.77426 9.41329
3.9071 -0.01069 0.85652 786.95418 -26.33198 -8.58366 40.83779 3.74829 3.44672 -7.93592 23.88421 -0.83079 51.22102 -14.50672 52.97609 114.41992 80.21706 -10.90568 -2.55907 48.16019 81.78893 -1.07983 48.78312 -87.64712 5.31026 0.63864 25.76601 13.92287 47.89921 5.3285 8.58602 -9.68869 2.2414 -5.7539 32.44471 -47.88205 -2.61658 -18.90452 11.85538 8.29716
3.92315 -0.00889 0.8389 788.25989 -26.60137 -8.87416 41.73133 3.60374 2.5996 -8.00667 23.83191 -0.83079 52.63264 -15.46018 52.9066 114.32439 80.28105 -10.77753 -2.63178 46.90679 82.37919 0.45869 48.04745 -87.39072 5.31854 0.71654 24.9704 13.92287 47.89921 5.3285 8.58909 -8.05195 3.93736 -5.76299 33.33112 -47.89128 -3.3651 -20.18443 9.87746 7.22809
3.93855 -0.0072 0.82187 789.66936 -26.83456 -9.17504 42.4509 3.44624 1.80199 -7.99876 23.69685 -0.83079 54.09845 -16.42536 52.77599 114.20258 80.33477 -10.86081 -2.72116 48.46851 82.59363 -0.89743 46.69749 -87.40759 5.2643 0.55014 24.23122 13.92287 47.8992 5.3285 8.5375 -5.94814 5.33808 -5.25285 34.01842 -47.89795 -4.72551 -21.41885 7.96423 6.0292
3.95233 -0.0059 0.8066 791.34159 -26.99003 -9.50252 42.7027 3.24792 1.167 -7.76651 23.38353 -0.83079 55.62709 -17.39773 52.49 114.01665 80.36463 -11.49659 -2.84278 59.67328 81.37464 -11.95287 43.82186 -88.31729 5.11305 -0.30497 23.68397 13.92287 47.89921 5.3285 8.29736 -2.1939 6.02588 -3.35951 34.14512 -47.90108 -7.76208 -22.59162 6.28652 4.48239
3.96541 -0.00479 0.79196 793.11523 -27.10278 -9.83337 42.76853 3.03973 0.59493 -7.45682 22.98699 -0.83079 57.1717 -18.36616 52.15059 113.81135 80.38433 -12.3363 -2.97609 73.70933 79.74602 -25.91896 40.3952 -89.50163 4.90789 -1.39308 23.19156 13.92287 47.89922 5.3285 8.00613 2.01424 6.43321 -0.95153 34.07001 -47.89745 -11.39503 -23.69512 4.6848 2.81675
3.97868 -0.00372 0.77708 794.84351 -27.21439 -10.15178 42.89356 2.84448 0.00961 -7.18886 22.61896 -0.83079 58.65761 -19.31413 51.84723 113.62668 80.40792 -13.07436 -3.09764 85.95529 78.34484 -38.10161 37.30557 -90.52471 4.72635 -2.34285 22.65478 13.92287 47.89923 5.3285 7.7606 5.88645 6.98476 1.20901 34.09149 -47.89878 -14.71818 -24.76638 3.04519 1.21823
3.9925 -0.00208 0.76199 796.5736 -27.41137 -10.52227 43.12756 2.61323 -0.65146 -6.89334 22.29176 -0.83079 60.38414 -20.36697 51.48764 113.38939 80.4346 -13.85857 -3.25041 100.17855 76.8138 -52.09718 33.80094 -91.69098 4.53729 -3.43277 22.19635 13.92287 47.89925 5.32851 7.42649 10.28192 7.4563 3.42291 34.09848 -47.90639 -18.21245 -26.10989 1.39948 -0.45103
4.00499 -0.00166 0.7475 798.3208 -27.42318 -10.78009 43.09105 2.45409 -1.13247 -6.63647 21.85375 -0.83079 61.60457 -21.19427 51.23663 113.25726 80.45201 -14.59041 -3.33893 111.00031 75.44241 -63.04499 31.05353 -92.62697 4.35571 -4.28638 21.59162 13.92287 47.89926 5.32851 7.2576 13.70447 8.02387 5.66063 34.08096 -47.88149 -21.49119 -26.86984 -0.19738 -1.98632
4.0142 -0.00474 0.73444 800.1063 -26.9073 -10.75867 42.33579 2.5045 -1.16982 -6.50963 21.19657 -0.83079 61.42381 -21.42426 51.27857 113.42986 80.45036 -15.14653 -3.25361 111.89511 74.56755 -65.03762 30.46968 -92.87669 4.20427 -4.41105 20.54031 13.92287 47.89926 5.32851 7.61451 14.32858 9.01681 7.69252 34.10028 -47.92194 -23.98953 -26.0226 -1.80767 -3.23554
4.02206 -0.00902 0.72197 801.90173 -26.21206 -10.61709 41.31792 2.62637 -1.01984 -6.42363 20.4189 -0.83079 60.73278 -21.42191 51.436 113.70687 80.4383 -15.63867 -3.10214 109.26907 73.86813 -63.85604 30.68158 -92.88403 4.06438 -4.29211 19.3461 13.92287 47.89926 5.32851 8.12782 13.96069 10.1003 9.75146 34.09195 -47.9021 -26.24718 -24.5941 -3.34778 -4.32589
4.03041 -0.01265 0.70926 803.68217 -25.61552 -10.50886 40.43039 2.71053 -0.9297 -6.3161 19.6536 -0.83079 60.26794 -21.50815 51.55433 113.93135 80.42934 -16.14662 -2.97551 108.16587 73.11165 -64.02949 30.58033 -92.99272 3.9233 -4.29761 18.23575 13.92287 47.89926 5.32851 8.53304 14.05197 11.08642 11.89874 34.05938 -47.80816 -28.65099 -23.43699 -4.83146 -5.41177
4.03928 -0.01675 0.69644 805.51186 -24.94224 -10.49115 39.48784 2.81687 -0.94474 -6.2183 19.06466 -0.83079 59.81569 -21.66477 51.61428 114.17991 80.42992 -16.71703 -2.86897 107.45752 72.24924 -64.65199 30.26751 -93.14687 3.76337 -4.25618 17.04476 13.92287 47.89926 5.32851 9.09623 14.12671 12.30486 13.66019 34.1732 -48.13904 -30.958 -22.23918 -6.67817 -6.81784
